# xmcd
#
# Track frame offsets: 
#        150
#        10814
#        22813
#        36496
#        58914
#        70766
#        81488
#        92738
#        104018
#        116939
#        130617
#        142431
#        153441
#        170769
#        187527
#        199565
#        210572
#        222198
#        232421
#        244079
#        257934
#        266360
#        280829
#        296230
#
# Disc length: 4085 seconds
#
# Revision: 0
# Processed by: cddbd v1.5.1PL0 Copyright (c) Steve Scherf et al.
# Submitted via: ExactAudioCopy v0.95b3
#
DISCID=750ff318
DTITLE=Roy Head - White Texas Soul Shooter (The Crazy Cajun Recordings
DTITLE=)
DYEAR=1999
DGENRE=Country
TTITLE0=One More Time
TTITLE1=Don't Want To Make It Too Funky
TTITLE2=Get Out Of My Life Woman
TTITLE3=Three O'Clock In The Morning
TTITLE4=I'm Not A Fool Anymore
TTITLE5=Trying To Reach My Goal
TTITLE6=Double Your Satisfaction
TTITLE7=Soul Train
TTITLE8=Baby's Not Home
TTITLE9=Bring It To Jerome
TTITLE10=Operator
TTITLE11=The Same People
TTITLE12=Drivin' Wheel
TTITLE13=Who Do You Love
TTITLE14=I Can't Stand It
TTITLE15=How Do You Think I Can Live With Somebody
TTITLE16=Mama Mama
TTITLE17=Before You Accuse Me
TTITLE18=Do What You Can Do
TTITLE19=Neighbor Neighbor
TTITLE20=I Was Born A Free Man
TTITLE21=She's About A Mover
TTITLE22=Let A Woman Be A Woman
TTITLE23=One More Time [different version]
EXTD=
EXTT0=
EXTT1=
EXTT2=
EXTT3=
EXTT4=
EXTT5=
EXTT6=
EXTT7=
EXTT8=
EXTT9=
EXTT10=
EXTT11=
EXTT12=
EXTT13=
EXTT14=
EXTT15=
EXTT16=
EXTT17=
EXTT18=
EXTT19=
EXTT20=
EXTT21=
EXTT22=
EXTT23=
PLAYORDER=
